# xmcd CD database file
#
# Track frame offsets:
#	150
#	37066
#	70026
#	101515
#	132206
#	152216
#	186344
#	225493
#	253008
#	293926
#
# Disc length: 4537 seconds
#
# Revision: 0
# Processed by: cddbd v1.5.1PL0 Copyright (c) Steve Scherf et al.
# Submitted via: CDex 1.51
#
DISCID=8c11b70a
DTITLE=Medwyn Goodall - Momentum [Cd 1] 
DYEAR=2004
DGENRE=New Age
TTITLE0=Dances On The Cloud
TTITLE1=Spire Mountain
TTITLE2=Merlin's Cave
TTITLE3=The Legend Of El Cid
TTITLE4=White Sails
TTITLE5=Machu Picchu
TTITLE6=Thunder Gods
TTITLE7=Dozmary Pool
TTITLE8=Coral Palace
TTITLE9=Magic Centre
EXTD=YEAR: 2004
EXTT0=
EXTT1=
EXTT2=
EXTT3=
EXTT4=
EXTT5=
EXTT6=
EXTT7=
EXTT8=
EXTT9=
PLAYORDER=
